<?xml version="1.0" encoding="UTF-8"?>
<svg version="1.1" xmlns="http://www.w3.org/2000/svg" width="735" height="861">
<path d="M0 0 C23.10738709 20.80485837 30.19744823 52.63319769 34.07421875 82.17358398 C34.30069092 83.81593018 34.30069092 83.81593018 34.53173828 85.49145508 C40.48122968 130.75765015 38.66145135 178.86623168 34.07421875 224.17358398 C33.90070793 225.93772733 33.72737214 227.7018879 33.55419922 229.46606445 C24.34466968 322.11578666 3.91827402 413.59954398 -25.20300293 501.9798584 C-25.92190531 504.16182 -26.63725312 506.34492681 -27.35253906 508.52807617 C-52.49132693 585.00855537 -85.55469144 662.40206314 -133.92578125 727.17358398 C-134.60253906 728.08213135 -134.60253906 728.08213135 -135.29296875 729.0090332 C-150.35049219 749.13706358 -167.13213689 768.60044679 -186.92578125 784.17358398 C-188.40498047 785.37821289 -188.40498047 785.37821289 -189.9140625 786.60717773 C-232.21578437 820.65653092 -288.13841721 824.89196817 -340.38354492 819.58398438 C-397.89368307 813.17012124 -452.62569673 790.71447562 -498.92578125 756.17358398 C-499.46895996 755.76930176 -500.01213867 755.36501953 -500.57177734 754.94848633 C-507.44796494 749.80510616 -514.10006018 744.43553363 -520.61352539 738.83984375 C-522.7934255 736.96714763 -524.9559591 735.15205679 -527.296875 733.48217773 C-527.83441406 733.0503418 -528.37195313 732.61850586 -528.92578125 732.17358398 C-528.92578125 731.51358398 -528.92578125 730.85358398 -528.92578125 730.17358398 C-529.49256592 729.9320459 -530.05935059 729.69050781 -530.64331055 729.44165039 C-533.37906742 727.92175295 -535.23794465 726.10363188 -537.4453125 723.88452148 C-538.30318359 723.0247168 -539.16105469 722.16491211 -540.04492188 721.27905273 C-540.93373047 720.37799805 -541.82253906 719.47694336 -542.73828125 718.54858398 C-543.61548828 717.67073242 -544.49269531 716.79288086 -545.39648438 715.88842773 C-550.442005 710.80894325 -555.28051248 705.61991621 -559.92578125 700.17358398 C-560.78300781 699.19776367 -561.64023437 698.22194336 -562.5234375 697.21655273 C-626.97911557 622.54602869 -655.12940698 528.43385228 -667.92578125 423.17358398 C-668.04953125 422.07191895 -668.04953125 422.07191895 -668.17578125 420.94799805 C-672.05724819 385.87617178 -673.93806616 349.07623905 -667.92578125 314.17358398 C-667.79187988 313.34616699 -667.65797852 312.51875 -667.52001953 311.66625977 C-662.56671476 281.83235505 -650.42118026 254.28076217 -630.92578125 231.17358398 C-630.34441406 230.4581543 -629.76304687 229.74272461 -629.1640625 229.00561523 C-627.80127007 227.35244572 -626.37038234 225.75576613 -624.92578125 224.17358398 C-624.26578125 224.17358398 -623.60578125 224.17358398 -622.92578125 224.17358398 C-622.92578125 223.51358398 -622.92578125 222.85358398 -622.92578125 222.17358398 C-620.49705804 219.5907726 -617.66465267 217.41787923 -614.92578125 215.17358398 C-613.54326172 214.03663086 -613.54326172 214.03663086 -612.1328125 212.87670898 C-598.58418076 202.09275368 -583.64291191 193.39827447 -567.92578125 186.17358398 C-566.86617187 185.68510986 -566.86617187 185.68510986 -565.78515625 185.18676758 C-539.62348811 173.29457313 -511.79590718 166.86589698 -483.88671875 160.58374023 C-438.56510978 150.3765926 -396.42301809 132.79073663 -354.92492676 112.16564941 C-352.78325652 111.10285684 -350.63939917 110.04457329 -348.49511719 108.98706055 C-325.70237736 97.75768869 -325.70237736 97.75768869 -303.32543945 85.72924805 C-298.00349748 82.74193979 -292.60634833 79.97777955 -287.12646484 77.29345703 C-281.42708648 74.47773484 -275.86617399 71.43166228 -270.30078125 68.36108398 C-261.9506068 63.76026323 -253.50860797 59.40353222 -244.96411133 55.17602539 C-239.09779722 52.27029567 -233.27493537 49.29734371 -227.48828125 46.23608398 C-226.33537598 45.6273645 -226.33537598 45.6273645 -225.15917969 45.00634766 C-221.87509116 43.27013232 -218.59318151 41.53001369 -215.31640625 39.7800293 C-199.44966836 31.31356547 -183.31193214 23.58213947 -166.92578125 16.17358398 C-165.93610352 15.72241211 -164.94642578 15.27124023 -163.92675781 14.80639648 C-118.23000862 -5.95770298 -44.78396322 -37.60543927 0 0 Z " fill="#FF4220" transform="translate(687.92578125,30.826416015625)"/>
</svg>
